PathFileType	4	(X/Y/Z)	Walk9.trc
DataRate	CameraRate	NumFrames	NumMarkers	Units	OrigDataRate	OrigDataStartFrame	OrigNumFrames
200.000000	200.000000	9	59	mm	200.000000	489	528
Frame#	Times		LFHD		RBHD		C7		T10		CLAV		STRN		RBack		LASI		RASI		RPSI		RACR1		RUA1		RElbow		RFA1		RWRR		RWRU		RCAR		LACR1		LUA1		LFA1		LWRR		LCAR		RTH1		RTH3		RTH2		RTH4		RLFC		LTH1		LTH3		LTH2		LTH4		LLFC		LTB1		LTB3		LTB2		LTB4		LLMAL		LMMAL		LMT1		LMT5		LToe		LPSI		RFHD		LElbowM		LElbow		LBHD		RMMAL		LWRU		RTB4		RTB2		RTB1		RTB3		RToe		RCAL		RElbowM		RMT1		RLMAL		RMT5		LCAL
			X1	Y1	Z1	X2	Y2	Z2	X3	Y3	Z3	X4	Y4	Z4	X5	Y5	Z5	X6	Y6	Z6	X7	Y7	Z7	X8	Y8	Z8	X9	Y9	Z9	X10	Y10	Z10	X11	Y11	Z11	X12	Y12	Z12	X13	Y13	Z13	X14	Y14	Z14	X15	Y15	Z15	X16	Y16	Z16	X17	Y17	Z17	X18	Y18	Z18	X19	Y19	Z19	X20	Y20	Z20	X21	Y21	Z21	X22	Y22	Z22	X23	Y23	Z23	X24	Y24	Z24	X25	Y25	Z25	X26	Y26	Z26	X27	Y27	Z27	X28	Y28	Z28	X29	Y29	Z29	X30	Y30	Z30	X31	Y31	Z31	X32	Y32	Z32	X33	Y33	Z33	X34	Y34	Z34	X35	Y35	Z35	X36	Y36	Z36	X37	Y37	Z37	X38	Y38	Z38	X39	Y39	Z39	X40	Y40	Z40	X41	Y41	Z41	X42	Y42	Z42	X43	Y43	Z43	X44	Y44	Z44	X45	Y45	Z45	X46	Y46	Z46	X47	Y47	Z47	X48	Y48	Z48	X49	Y49	Z49	X50	Y50	Z50	X51	Y51	Z51	X52	Y52	Z52	X53	Y53	Z53	X54	Y54	Z54	X55	Y55	Z55	X56	Y56	Z56	X57	Y57	Z57	X58	Y58	Z58	X59	Y59	Z59

489	2.445	973.58	1600.9	-53.807	810.31	1555.9	53.85	812.14	1429.4	-24.918	784.84	1146.4	-22.598	941.16	1356.5	-28.525	1022.8	1134	-21.709	770.37	1324.9	69.901	968.85	951.66	-149.57	972.55	965.4	123.03	757.65	989.46	54.022	885.78	1365.7	145.47	847.45	1155.9	205.16	814.87	1052.5	225.76	862.45	908.11	242.63	877.31	800.57	210.44	821.97	802.5	260.64	863.56	756.4	260.14	879.36	1369.6	-197.09	876.42	1160.7	-246.16	935.04	925.28	-258.87	958.09	810.98	-216.41	970.2	769.44	-259.32	910.92	762.74	172.35	978.83	588.07	141.23	1008.7	705.74	141.04	945.83	675.16	156.74	1000.4	500.21	126.21	870.03	740.49	-174.66	884.25	559.24	-133.21	948.3	654.33	-127.32	875.41	644.92	-152.43	879.95	450.16	-118.03	893.22	350.14	-35.876	844.53	168.76	-33.173	851.11	262.09	-107.5	870.81	257.36	-38.224	786.34	62.685	-78.991	802.14	73.793	1.4493	932.28	38.164	-39.756	893.17	21.622	-116.9	979.09	29.213	-67.628	756.31	985.91	-60.313	980.01	1601.7	19.016	834.74	1026.1	-199.53	868.25	1041.1	-261.11	804.63	1566.2	-74.599	847.71	143.99	29.732	919.96	804.75	-276.29	950.86	294.82	63.029	928.33	310.96	128.55	1000.8	373.14	65.283	901.55	216.93	60.654	970.27	43.319	128.37	764.15	123.89	45.421	803.77	1031.5	141.72	945.57	58.27	89.937	808.62	142.81	101.63	884.21	53.713	145.95	735.73	31.098	-25.064
490	2.45	979.21	1600.5	-53.65	815.87	1555.8	53.978	817.48	1429.2	-24.863	790.18	1146.2	-22.763	946.47	1356.2	-28.605	1027.9	1133.8	-22.247	775.69	1324.7	69.837	974.17	951.25	-149.57	978.22	965.54	122.52	763.02	989.36	54.076	891.16	1365.2	145.44	851.94	1155.6	205.02	818.99	1052.4	225.51	865.56	907.74	242.63	879.55	800	210.57	824.25	802.43	260.74	865.41	755.93	260.26	884.58	1369.7	-197.1	882.53	1160.9	-246.64	943.26	926.07	-259.09	967.85	812.33	-216.25	980.53	770.87	-259.05	916.79	762.92	172.6	985.51	588.67	140.92	1014.8	706.47	141.13	952.08	675.55	156.75	1007.5	500.53	126.01	874.23	740.03	-174.48	887.64	558.74	-132.97	952.12	653.51	-127.15	879.26	644.42	-152.22	882.8	449.66	-117.75	895.31	349.54	-35.578	845.37	168.49	-32.974	852.73	261.76	-107.29	872.26	256.91	-37.965	786.52	62.828	-78.921	802.41	73.741	1.6134	932.32	38.161	-39.746	893.11	21.584	-116.93	979.18	29.176	-67.679	761.48	985.69	-60.225	985.64	1601.3	19.171	841.53	1025.8	-200.35	875.09	1041.2	-261.82	810.2	1566.1	-74.503	864.34	139.91	29.303	929.79	805.32	-276.1	963	293.55	62.698	940.03	309.14	128.16	1010.7	373.23	65.006	915.92	214.36	60.295	989.45	42.911	128.92	781.36	117.33	44.792	808	1031.4	141.42	964.53	57.366	90.298	825.05	137.73	101.07	902.93	51.11	145.98	735.79	31.315	-24.946
491	2.455	984.84	1600.1	-53.477	821.42	1555.6	54.128	822.82	1429	-24.79	795.59	1145.8	-22.889	951.79	1356	-28.674	1033.1	1133.5	-22.776	781.01	1324.4	69.785	979.48	950.74	-149.52	983.86	965.57	122.03	768.4	989.2	54.145	896.54	1364.8	145.43	856.46	1155.3	204.9	823.15	1052.2	225.3	868.72	907.33	242.66	881.86	799.4	210.71	826.63	802.31	260.86	867.36	755.43	260.39	889.8	1369.7	-197.1	888.61	1161	-247.12	951.45	926.83	-259.33	977.59	813.68	-216.09	990.82	772.29	-258.76	922.65	763.03	172.87	992.08	589.17	140.62	1020.9	707.08	141.2	958.28	675.84	156.78	1014.5	500.7	125.85	878.46	739.54	-174.29	891.07	558.21	-132.73	955.97	652.67	-126.97	883.13	643.92	-152	885.68	449.13	-117.48	897.44	348.93	-35.281	846.24	168.21	-32.777	854.39	261.42	-107.08	873.75	256.45	-37.705	786.72	62.977	-78.852	802.68	73.678	1.7876	932.35	38.155	-39.734	893.05	21.546	-116.96	979.28	29.133	-67.744	766.64	985.42	-60.124	991.26	1600.8	19.341	848.32	1025.5	-201.14	881.9	1041.2	-262.51	815.77	1566	-74.383	881.14	135.89	28.904	939.59	805.88	-275.89	975.11	292.26	62.38	951.75	307.26	127.8	1020.4	373.26	64.73	930.35	211.8	59.958	1008.7	42.637	129.5	798.84	110.8	44.204	812.28	1031.3	141.16	983.59	56.6	90.684	841.67	132.68	100.55	921.8	48.616	146.04	735.85	31.549	-24.826
492	2.46	990.46	1599.7	-53.288	826.98	1555.3	54.299	828.16	1428.7	-24.7	801.08	1145.4	-22.973	957.1	1355.6	-28.731	1038.3	1133.2	-23.296	786.34	1324	69.744	984.76	950.13	-149.44	989.48	965.51	121.56	773.79	988.98	54.231	901.92	1364.2	145.43	861	1154.9	204.81	827.36	1052	225.12	871.95	906.87	242.71	884.25	798.76	210.86	829.09	802.14	261	869.41	754.89	260.53	895	1369.6	-197.09	894.67	1161.1	-247.59	959.59	927.56	-259.57	987.32	815.03	-215.92	1001.1	773.7	-258.46	928.5	763.08	173.14	998.55	589.56	140.33	1026.9	707.59	141.24	964.41	676.05	156.81	1021.3	500.73	125.74	882.71	739.02	-174.11	894.55	557.65	-132.5	959.85	651.81	-126.78	887.02	643.4	-151.78	888.61	448.58	-117.2	899.61	348.29	-34.99	847.13	167.91	-32.586	856.08	261.05	-106.86	875.26	255.97	-37.449	786.92	63.134	-78.786	802.97	73.609	1.9697	932.38	38.146	-39.718	892.98	21.508	-116.98	979.38	29.082	-67.825	771.81	985.1	-60.009	996.88	1600.3	19.527	855.12	1025.2	-201.9	888.68	1041.2	-263.19	821.33	1565.9	-74.237	898.08	131.94	28.538	949.36	806.44	-275.67	987.18	290.96	62.077	963.47	305.32	127.47	1030.1	373.24	64.458	944.85	209.27	59.643	1028.1	42.518	130.08	816.56	104.33	43.658	816.62	1031	140.92	1002.7	55.991	91.083	858.48	127.66	100.08	940.81	46.253	146.12	735.92	31.798	-24.707
493	2.465	996.07	1599.1	-53.083	832.53	1555	54.492	833.5	1428.3	-24.592	806.62	1144.9	-23.015	962.43	1355.2	-28.775	1043.6	1132.8	-23.803	791.67	1323.5	69.715	990.02	949.43	-149.33	995.07	965.35	121.12	779.19	988.71	54.337	907.31	1363.6	145.44	865.58	1154.5	204.74	831.6	1051.7	224.98	875.25	906.36	242.79	886.72	798.09	211.02	831.66	801.92	261.15	871.56	754.32	260.67	900.21	1369.5	-197.06	900.69	1161.1	-248.05	967.7	928.27	-259.83	997.01	816.39	-215.76	1011.3	775.1	-258.15	934.33	763.05	173.42	1004.9	589.85	140.05	1032.9	707.97	141.26	970.49	676.17	156.87	1028	500.62	125.68	886.98	738.47	-173.91	898.07	557.06	-132.26	963.75	650.93	-126.59	890.93	642.85	-151.56	891.58	448	-116.93	901.82	347.63	-34.707	848.04	167.6	-32.406	857.79	260.67	-106.66	876.8	255.47	-37.199	787.12	63.297	-78.723	803.25	73.54	2.157	932.41	38.134	-39.699	892.92	21.474	-117	979.49	29.023	-67.923	776.99	984.74	-59.877	1002.5	1599.7	19.73	861.91	1024.9	-202.64	895.45	1041.2	-263.84	826.89	1565.7	-74.065	915.14	128.09	28.206	959.09	806.99	-275.43	999.21	289.65	61.793	975.2	303.34	127.17	1039.6	373.16	64.193	959.4	206.79	59.353	1047.5	42.575	130.65	834.52	97.942	43.153	821.01	1030.7	140.72	1021.9	55.558	91.479	875.47	122.71	99.651	959.96	44.043	146.21	735.99	32.062	-24.589
494	2.47	1001.7	1598.6	-52.861	838.09	1554.6	54.707	838.84	1427.9	-24.465	812.23	1144.4	-23.017	967.76	1354.8	-28.805	1048.8	1132.3	-24.296	797.02	1323	69.699	995.24	948.64	-149.2	1000.6	965.08	120.7	784.61	988.4	54.463	912.71	1363	145.46	870.18	1154	204.68	835.89	1051.4	224.86	878.61	905.82	242.89	889.28	797.39	211.2	834.32	801.66	261.32	873.82	753.71	260.83	905.41	1369.4	-197.02	906.68	1161.1	-248.49	975.78	928.95	-260.1	1006.7	817.75	-215.6	1021.4	776.49	-257.84	940.14	762.96	173.71	1011.1	590.04	139.79	1038.8	708.24	141.26	976.5	676.2	156.93	1034.6	500.37	125.67	891.28	737.89	-173.72	901.63	556.45	-132.03	967.67	650.04	-126.39	894.86	642.29	-151.34	894.59	447.39	-116.67	904.07	346.95	-34.435	848.97	167.27	-32.24	859.52	260.28	-106.45	878.37	254.96	-36.956	787.34	63.468	-78.663	803.54	73.478	2.3468	932.44	38.12	-39.675	892.87	21.444	-117.02	979.6	28.953	-68.037	782.16	984.35	-59.726	1008.1	1599	19.949	868.71	1024.5	-203.35	902.18	1041.1	-264.47	832.44	1565.5	-73.867	932.31	124.36	27.908	968.78	807.54	-275.17	1011.2	288.35	61.53	986.93	301.33	126.9	1049	373.04	63.938	974	204.37	59.09	1067	42.831	131.19	852.7	91.671	42.692	825.46	1030.4	140.56	1041.2	55.32	91.858	892.63	117.86	99.272	979.24	42.011	146.32	736.06	32.343	-24.472
495	2.475	1007.3	1598	-52.623	843.65	1554.2	54.944	844.19	1427.5	-24.32	817.87	1143.8	-22.984	973.11	1354.3	-28.822	1054.1	1131.8	-24.771	802.38	1322.5	69.695	1000.4	947.76	-149.05	1006.2	964.71	120.31	790.04	988.03	54.611	918.12	1362.3	145.5	874.82	1153.5	204.65	840.22	1051	224.77	882.04	905.24	243.02	891.93	796.66	211.38	837.08	801.36	261.51	876.19	753.08	261	910.62	1369.2	-196.97	912.65	1161.1	-248.92	983.82	929.6	-260.37	1016.3	819.11	-215.44	1031.5	777.87	-257.53	945.93	762.8	174	1017.3	590.11	139.54	1044.7	708.39	141.23	982.45	676.15	157.02	1040.9	499.98	125.71	895.6	737.28	-173.51	905.23	555.8	-131.8	971.62	649.13	-126.2	898.82	641.7	-151.12	897.63	446.76	-116.41	906.35	346.25	-34.177	849.91	166.93	-32.09	861.27	259.87	-106.25	879.96	254.43	-36.723	787.55	63.646	-78.608	803.84	73.431	2.5356	932.48	38.104	-39.648	892.83	21.418	-117.03	979.7	28.872	-68.167	787.34	983.91	-59.555	1013.7	1598.4	20.183	875.5	1024	-204.03	908.9	1041	-265.07	837.99	1565.2	-73.642	949.59	120.78	27.646	978.44	808.08	-274.91	1023.1	287.08	61.291	998.64	299.31	126.67	1058.3	372.87	63.699	988.64	202.03	58.856	1086.6	43.307	131.67	871.09	85.542	42.276	829.97	1030	140.43	1060.5	55.293	92.204	909.94	113.11	98.942	998.63	40.178	146.42	736.14	32.64	-24.359
496	2.48	1012.9	1597.3	-52.369	849.21	1553.7	55.204	849.55	1427	-24.157	823.54	1143.1	-22.92	978.46	1353.7	-28.824	1059.4	1131.3	-25.228	807.75	1321.8	69.706	1005.6	946.81	-148.89	1011.7	964.25	119.96	795.49	987.61	54.782	923.53	1361.6	145.55	879.49	1153	204.64	844.59	1050.5	224.71	885.53	904.62	243.18	894.67	795.91	211.59	839.95	801.01	261.72	878.67	752.41	261.19	915.83	1368.9	-196.9	918.59	1160.9	-249.32	991.82	930.22	-260.63	1025.9	820.46	-215.29	1041.5	779.24	-257.21	951.71	762.58	174.3	1023.3	590.08	139.31	1050.5	708.42	141.18	988.34	676	157.12	1047.2	499.45	125.78	899.93	736.65	-173.31	908.87	555.13	-131.58	975.58	648.2	-126	902.79	641.09	-150.91	900.71	446.1	-116.17	908.67	345.53	-33.935	850.87	166.57	-31.958	863.05	259.45	-106.06	881.58	253.89	-36.5	787.77	63.833	-78.555	804.13	73.406	2.72	932.52	38.087	-39.619	892.79	21.398	-117.03	979.81	28.779	-68.31	792.52	983.43	-59.361	1019.3	1597.6	20.435	882.28	1023.6	-204.67	915.6	1040.8	-265.64	843.53	1564.8	-73.391	966.94	117.37	27.422	988.05	808.61	-274.63	1035	285.84	61.08	1010.3	297.3	126.47	1067.5	372.67	63.477	1003.3	199.79	58.652	1106.1	44.023	132.08	889.66	79.584	41.904	834.53	1029.5	140.34	1079.8	55.494	92.503	927.4	108.52	98.664	1018.1	38.568	146.52	736.22	32.956	-24.249
497	2.485	1018.5	1596.6	-52.099	854.77	1553.2	55.487	854.92	1426.4	-23.976	829.22	1142.4	-22.832	983.83	1353.1	-28.809	1064.7	1130.7	-25.662	813.14	1321.2	69.732	1010.6	945.78	-148.73	1017.3	963.68	119.63	800.97	987.15	54.977	928.96	1360.8	145.62	884.2	1152.4	204.65	849.01	1050	224.68	889.11	903.97	243.36	897.51	795.13	211.81	842.91	800.63	261.96	881.27	751.72	261.4	921.05	1368.6	-196.82	924.5	1160.8	-249.71	999.79	930.82	-260.9	1035.5	821.81	-215.14	1051.5	780.6	-256.9	957.47	762.29	174.61	1029.2	589.94	139.11	1056.2	708.33	141.1	994.16	675.77	157.25	1053.2	498.79	125.89	904.28	735.98	-173.12	912.53	554.43	-131.37	979.57	647.25	-125.82	906.77	640.45	-150.71	903.81	445.41	-115.93	911.03	344.79	-33.71	851.84	166.2	-31.843	864.84	259.01	-105.88	883.22	253.34	-36.289	788	64.027	-78.505	804.43	73.407	2.8969	932.57	38.07	-39.587	892.77	21.381	-117.02	979.91	28.676	-68.464	797.71	982.92	-59.144	1024.9	1596.9	20.702	889.07	1023.1	-205.28	922.27	1040.6	-266.18	849.07	1564.4	-73.114	984.34	114.16	27.235	997.62	809.15	-274.35	1046.8	284.65	60.899	1022	295.31	126.31	1076.5	372.44	63.279	1018	197.67	58.481	1125.7	45.001	132.41	908.4	73.824	41.576	839.14	1029	140.28	1099.1	55.935	92.743	944.98	104.09	98.437	1037.7	37.202	146.62	736.31	33.292	-24.142
